<?xml version="1.0" encoding="UTF-8"?>
<svg width="55px" height="55px" viewBox="0 0 55 55" version="1.1" xmlns="http://www.w3.org/2000/svg" xmlns:xlink="http://www.w3.org/1999/xlink">
    <title>close</title>
    <g id="Brew-Form" stroke="none" stroke-width="1" fill="none" fill-rule="evenodd">
        <g id="Log" transform="translate(-336.000000, -20.000000)" fill="#FFFFF4">
            <g id="Combined-Shape" transform="translate(336.000000, 20.000000)">
                <path d="M27.5,-9.9475983e-14 C42.6878306,-9.9475983e-14 55,12.3121694 55,27.5 C55,42.6878306 42.6878306,55 27.5,55 C12.3121694,55 0,42.6878306 0,27.5 C0,12.3121694 12.3121694,-9.9475983e-14 27.5,-9.9475983e-14 Z M18.1897607,14.8899291 C17.4087121,14.1088805 16.1423822,14.1088805 15.3613336,14.8899291 L15.3613336,14.8899291 L14.8899291,15.3613336 C14.1088805,16.1423822 14.1088805,17.4087121 14.8899291,18.1897607 L14.8899291,18.1897607 L24.1999327,27.4992929 L14.8899291,36.8102393 C14.1088805,37.5912879 14.1088805,38.8576178 14.8899291,39.6386664 L14.8899291,39.6386664 L15.3613336,40.1100709 C16.1423822,40.8911195 17.4087121,40.8911195 18.1897607,40.1100709 L18.1897607,40.1100709 L27.5,30.7993602 L36.8102393,40.1100709 C37.5912879,40.8911195 38.8576178,40.8911195 39.6386664,40.1100709 L39.6386664,40.1100709 L40.1100709,39.6386664 C40.8911195,38.8576178 40.8911195,37.5912879 40.1100709,36.8102393 L40.1100709,36.8102393 L30.8000673,27.4992929 L40.1100709,18.1897607 C40.8911195,17.4087121 40.8911195,16.1423822 40.1100709,15.3613336 L40.1100709,15.3613336 L39.6386664,14.8899291 C38.8576178,14.1088805 37.5912879,14.1088805 36.8102393,14.8899291 L36.8102393,14.8899291 L27.5,24.1992255 Z"></path>
            </g>
        </g>
    </g>
</svg>