<?xml version="1.0" encoding="UTF-8"?>
<svg width="34px" height="44px" viewBox="0 0 34 44" version="1.1" xmlns="http://www.w3.org/2000/svg" xmlns:xlink="http://www.w3.org/1999/xlink">
    <title>edit</title>
    <g id="Brew-Form" stroke="none" stroke-width="1" fill="none" fill-rule="evenodd">
        <g id="Home" transform="translate(-333.000000, -778.000000)" fill="#C0392B">
            <g id="Group" transform="translate(325.000000, 777.500000)">
                <g id="Group-3" transform="translate(21.542641, 24.604087) rotate(35.000000) translate(-21.542641, -24.604087) translate(13.138795, 0.452479)">
                    <path d="M0.5,7.97796604 L16.3076923,7.97796604 C16.5838347,7.97796604 16.8076923,8.20182366 16.8076923,8.47796604 L16.8076923,28.977966 C16.8076923,30.0825355 15.9122618,30.977966 14.8076923,30.977966 L2,30.977966 C0.8954305,30.977966 -5.67081481e-14,30.0825355 -5.68434189e-14,28.977966 L-5.68434189e-14,8.47796604 C-5.68772365e-14,8.20182366 0.223857625,7.97796604 0.5,7.97796604 Z" id="Rectangle"></path>
                    <path d="M2,3.41060513e-13 L14.8076923,3.41060513e-13 C15.9122618,3.39876552e-13 16.8076923,0.8954305 16.8076923,2 L16.8076923,6.5 C16.8076923,6.77614237 16.5838347,7 16.3076923,7 L0.5,7 C0.223857625,7 5.31164513e-13,6.77614237 5.31130695e-13,6.5 L5.31130695e-13,2 C5.30995424e-13,0.8954305 0.8954305,3.41263419e-13 2,3.41060513e-13 Z" id="Rectangle"></path>
                    <path d="M9.29827334,33.2843787 L16.0840855,46.856003 C16.3310748,47.3499815 16.1308504,47.9506546 15.6368719,48.1976438 C15.4980165,48.2670715 15.3449034,48.3032166 15.1896583,48.3032166 L1.61803399,48.3032166 C1.06574924,48.3032166 0.618033989,47.8555014 0.618033989,47.3032166 C0.618033989,47.1479715 0.654179081,46.9948585 0.723606798,46.856003 L7.50941896,33.2843787 C7.75640821,32.7904002 8.35708125,32.5901759 8.85105975,32.8371651 C9.04458715,32.9339288 9.20150964,33.0908513 9.29827334,33.2843787 Z" id="Triangle" transform="translate(8.403846, 39.899370) scale(1, -1) translate(-8.403846, -39.899370) "></path>
                </g>
            </g>
        </g>
    </g>
</svg>