<?xml version="1.0" encoding="UTF-8"?>
<svg width="55px" height="55px" viewBox="0 0 19 19" version="1.1" xmlns="http://www.w3.org/2000/svg" xmlns:xlink="http://www.w3.org/1999/xlink" fill="#333">
  <path d="M8.81612,-1.08357767e-13 C13.88012,-1.08357767e-13 18.00012,4.037 18.00012,9 C18.00012,13.963 13.88012,18 8.81612,18 C4.77412,18 1.25012,15.461 0.0471199993,11.682 C-0.119880001,11.156 0.171119999,10.594 0.697119999,10.426 C1.22312,10.259 1.78512,10.55 1.95312,11.076 C2.89012,14.022 5.64812,16 8.81612,16 C12.77812,16 16.00012,12.86 16.00012,9 C16.00012,5.141 12.77812,2 8.81612,2 C7.08812,2 5.45812,2.602 4.17112,3.67 L6.33712,3.313 C6.88712,3.213 7.39712,3.592 7.48712,4.136 C7.57712,4.681 7.20812,5.196 6.66312,5.285 L2.41712,5.987 C2.36212,5.996 2.30612,6 2.25312,6 C2.13412,6 2.01812,5.979 1.91012,5.939 C1.87312,5.925 1.84312,5.899 1.80712,5.88 C1.74112,5.846 1.67212,5.816 1.61512,5.768 C1.57912,5.739 1.55612,5.697 1.52512,5.663 C1.47812,5.614 1.42812,5.567 1.39312,5.507 C1.36812,5.464 1.35812,5.413 1.33912,5.365 C1.31512,5.306 1.28312,5.251 1.27112,5.186 L0.517119999,1.186 C0.415119999,0.643 0.772119999,0.119 1.31512,0.018 C1.85612,-0.08 2.38112,0.273 2.48312,0.815 L2.75512,2.256 C4.41912,0.815 6.55212,-1.08357767e-13 8.81612,-1.08357767e-13 Z M8.9998,5.5 C9.5518,5.5 9.9998,5.947 9.9998,6.5 L9.9998,6.5 L9.9998,8.5 L11.9998,8.5 C12.5518,8.5 12.9998,8.947 12.9998,9.5 C12.9998,10.053 12.5518,10.5 11.9998,10.5 L11.9998,10.5 L8.9998,10.5 C8.4478,10.5 7.9998,10.053 7.9998,9.5 L7.9998,9.5 L7.9998,6.5 C7.9998,5.947 8.4478,5.5 8.9998,5.5 Z"></path>
</svg>