<?xml version="1.0" encoding="UTF-8"?>
<svg width="24px" height="24px" viewBox="0 0 24 24" version="1.1" xmlns="http://www.w3.org/2000/svg" xmlns:xlink="http://www.w3.org/1999/xlink" fill="#333">
  <path d="M12,10 C12.552,10 13,10.448 13,11 L13,11 L13,16 C13,16.552 12.552,17 12,17 C11.448,17 11,16.552 11,16 L11,16 L11,11 C11,10.448 11.448,10 12,10 Z M12,7 C12.552,7 13,7.448 13,8 C13,8.552 12.552,9 12,9 C11.448,9 11,8.552 11,8 C11,7.448 11.448,7 12,7 Z M12,20 C7.589,20 4,16.411 4,12 C4,7.589 7.589,4 12,4 C16.411,4 20,7.589 20,12 C20,16.411 16.411,20 12,20 M12,2 C6.477,2 2,6.477 2,12 C2,17.523 6.477,22 12,22 C17.522,22 22,17.523 22,12 C22,6.477 17.522,2 12,2" id="path-1"></path>
</svg>