<?xml version="1.0" encoding="UTF-8"?>
<svg width="24px" height="24px" viewBox="0 0 24 24" version="1.1" xmlns="http://www.w3.org/2000/svg" xmlns:xlink="http://www.w3.org/1999/xlink" fill="#333">
  <path d="M15,12 L13,12 L13,10 C13,9.447 12.552,9 12,9 C11.448,9 11,9.447 11,10 L11,13 C11,13.553 11.448,14 12,14 L15,14 C15.552,14 16,13.553 16,13 C16,12.447 15.552,12 15,12 M12,19.75 C8.278,19.75 5.25,16.722 5.25,13 C5.25,9.278 8.278,6.25 12,6.25 C15.722,6.25 18.75,9.278 18.75,13 C18.75,16.722 15.722,19.75 12,19.75 M12.988,4.058 C12.99,4.037 13,4.021 13,4 L13,3 L14,3 C14.552,3 15,2.553 15,2 C15,1.447 14.552,1 14,1 L10,1 C9.448,1 9,1.447 9,2 C9,2.553 9.448,3 10,3 L11,3 L11,4 C11,4.021 11.01,4.037 11.012,4.058 C6.513,4.552 3,8.372 3,13 C3,17.963 7.038,22 12,22 C16.962,22 21,17.963 21,13 C21,8.372 17.487,4.552 12.988,4.058" id="path-1"></path>
</svg>