<?xml version="1.0" encoding="UTF-8"?>
<svg width="24px" height="24px" viewBox="0 0 24 24" version="1.1" xmlns="http://www.w3.org/2000/svg" xmlns:xlink="http://www.w3.org/1999/xlink" fill="#333">
  <path d="M12.5585055,5.42902754 L8.64850547,9.35502754 C6.47250547,11.5380275 6.44350547,15.1140275 8.58050547,17.3270275 C9.60950547,18.3940275 10.9835055,18.9880275 12.4475055,19.0000275 L12.4495055,19.0000275 C13.9145055,19.0110275 15.2985055,18.4400275 16.3445055,17.3900275 C18.5185055,15.2110275 18.5475055,11.6360275 16.4095055,9.42102754 L12.5585055,5.42902754 Z M12.4315055,21.0000275 C10.4245055,20.9830275 8.54650547,20.1720275 7.14150547,18.7160275 C4.25250547,15.7240275 4.29150547,10.8930275 7.22850547,7.94602754 L11.8615055,3.29502754 C12.0515055,3.10502754 12.3095055,2.99802754 12.5785055,3 L12.5785055,3 C12.8475055,3.00302754 13.1035055,3.11402754 13.2895055,3.30602754 L17.8495055,8.03302754 C20.7375055,11.0260275 20.6985055,15.8580275 17.7615055,18.8020275 C16.3325055,20.2360275 14.4405055,21.0160275 12.4335055,21.0000275 L12.4315055,21.0000275 Z" id="path-1"></path>
</svg>